<svg width="160" height="160" viewBox="0 0 160 160" fill="none" xmlns="http://www.w3.org/2000/svg">
<g clip-path="url(#clip0_18_1254)">
<path d="M33.2765 37.7981C33.3372 40.2553 31.1372 43.1503 29.4359 44.7303C26.7906 47.1875 23.5778 49.7053 21.809 52.9175C21.3175 53.8634 20.879 54.8147 20.5012 55.7975C19.9193 55.6997 19.3518 55.5553 18.8006 55.3597C19.8137 52.9247 19.1784 49.8187 18.2184 47.5659C17.3415 45.4184 15.95 43.7169 15.3834 41.3894C14.6956 38.7425 15.5118 36.2875 17.5906 34.5859C20.615 32.1297 23.9562 30.4887 27.7962 31.999C30.314 33.0125 33.1484 34.835 33.2765 37.7981Z" fill="#E51345"/>
<path d="M33.2763 37.4183L15.3973 37.4362L15.398 38.1918L33.2771 38.174L33.2763 37.4183Z" fill="#F299BB"/>
<path d="M15.7253 41.8977L15.5641 42.6357L28.8718 45.5424L29.033 44.8044L15.7253 41.8977Z" fill="#F299BB"/>
<path d="M28.7715 43.6903L27.6172 40.5744L24.2294 42.79L22.1709 39.6737L17.7231 42.0056L15.8344 39.0691L16.47 38.6603L17.9847 41.0144L22.425 38.6869L24.4456 41.7456L27.9965 39.4234L29.1303 42.4812L32.4753 39.9953L32.9262 40.6012L28.7715 43.6903Z" fill="#F299BB"/>
<path d="M31.5851 33.9456L17.5841 34.2061L17.5982 34.9616L31.5991 34.7011L31.5851 33.9456Z" fill="#F299BB"/>
<path d="M17.6385 45.8526L17.541 46.6021L26.4592 47.7632L26.5567 47.0136L17.6385 45.8526Z" fill="#F299BB"/>
<path d="M53.0093 96.4747C35.5259 93.6434 23.7421 75.4175 23.6243 58.4975C23.6165 57.3553 21.3996 57.6981 21.4065 58.6694C21.5306 76.5137 33.9146 95.0822 52.2465 98.0512C53.3146 98.2237 54.479 96.7134 53.0093 96.4747Z" fill="#FF8E1D"/>
<path d="M24.7978 54.0906C24.7978 54.0906 20.5134 57.3672 19.6315 55.6009C18.7496 53.8378 25.049 48.9265 27.065 50.6897C29.0806 52.4522 22.78 61.2709 22.78 61.2709C22.78 61.2709 11.3168 62.0309 16.4815 50.3125L22.78 53.0822" fill="#FF8E1D"/>
<path d="M24.7978 54.0906C24.7978 54.0906 20.5134 57.3672 19.6315 55.6009C18.7496 53.8378 25.049 48.9265 27.065 50.6897L20.3731 54.4869C20.3731 54.4869 20.2131 55.7722 24.7978 54.0906Z" fill="#004C84"/>
<path d="M14.7244 55.444C14.6025 57.3769 17.0875 58.1547 18.6437 58.185C19.035 58.1931 19.8181 57.6103 19.0787 57.5953C17.8215 57.57 15.7184 56.8597 15.8172 55.2975C15.8437 54.8728 14.7462 55.1003 14.7244 55.444Z" fill="#004C84"/>
<path d="M15.2265 52.555C15.4025 54.6419 18.2519 55.0337 19.8853 54.7684C20.4859 54.6706 20.7206 53.835 19.9794 53.955C18.6615 54.1691 16.4637 53.9425 16.3222 52.2616C16.2794 51.7528 15.1819 52.0194 15.2265 52.555Z" fill="#004C84"/>
<path d="M18.8234 60.1228C20.6213 59.4153 21.3884 57.15 21.4247 55.3619C21.4334 54.9181 20.3375 55.1537 20.3306 55.504C20.3031 56.8625 19.8188 59.1294 18.3953 59.6903C17.6813 59.9709 18.3369 60.3147 18.8234 60.1228Z" fill="#004C84"/>
<path d="M15.6706 48.174C10.7293 44.4197 12.36 36.6084 15.8662 32.4312C16.08 32.1772 15.5509 32.1653 15.4209 32.32C11.7843 36.6528 10.1403 44.5812 15.2387 48.454C15.3956 48.5734 15.8965 48.3453 15.6706 48.174Z" fill="#004C84"/>
<path d="M12.4365 47.5415C8.96591 44.0037 11.3343 37.9922 13.3865 34.3144C13.5237 34.0691 12.97 34.1078 12.8718 34.2831C10.7643 38.0603 8.38122 44.1472 11.9306 47.7653C12.0793 47.9178 12.5997 47.7081 12.4365 47.5415Z" fill="#004C84"/>
<path d="M82.6141 115.027L59.1791 116.162L63.7153 132.668C63.7153 132.668 51.3675 125.108 50.6119 126.872C49.856 128.636 65.4788 135.314 65.4788 135.314L61.5732 117.548L82.6141 115.027Z" fill="#FF8E1D"/>
<path d="M84.5044 115.027L68.6288 128.385L82.6141 147.663C82.6141 147.663 66.3344 145.645 66.5994 147.663C66.865 149.676 87.5278 148.794 87.5278 148.794L71.1481 129.393L84.5044 115.027Z" fill="#FF8E1D"/>
<path d="M88.1575 114.525L82.7397 138.463L110.08 126.368C110.08 126.368 108.19 140.983 110.08 141.108C111.97 141.235 111.214 123.218 111.214 123.218L86.0153 134.809L88.1575 114.525Z" fill="#FF8E1D"/>
<path d="M85.6381 116.08L79.0859 130.273L101.135 135.943C101.135 135.943 91.4322 142.998 91.9369 145.77C92.4413 148.542 104.537 134.179 104.537 134.179L81.8584 129.014L85.6381 116.08Z" fill="#FF8E1D"/>
<path d="M89.9212 100.791C89.9212 100.791 93.4487 65.7653 60.1872 74.8366C32.9153 82.2747 48.8478 97.5147 48.8478 97.5147C48.8478 97.5147 62.5809 118.807 94.0797 111.123C125.578 103.438 123.562 77.2309 123.562 77.2309L89.9212 100.791Z" fill="#FFC033"/>
<path d="M98.1819 109.703L97.4922 109.387C97.5862 109.181 107.078 88.77 122.196 86.3259L122.317 87.074C107.601 89.4537 98.2747 109.501 98.1819 109.703Z" fill="#FF8E1D"/>
<path d="M96.1503 97.7156C97.065 97.7437 97.7966 99.5756 98.1156 100.242C98.5453 101.139 98.9794 102.151 99.0891 103.15C99.1097 103.336 100.218 103.126 100.188 102.855C100.052 101.614 99.4503 100.367 98.8791 99.2762C98.4809 98.5156 97.8566 97.32 96.8691 97.2903C96.6516 97.2837 95.6178 97.7 96.1503 97.7156Z" fill="#FF8E1D"/>
<path d="M101.948 93.9725C103.165 93.9378 103.958 95.4147 104.209 96.4178C104.323 96.8703 105.423 96.5794 105.309 96.1231C104.921 94.5734 103.763 93.2103 102.07 93.2584C101.479 93.2753 101.195 93.994 101.948 93.9725Z" fill="#FF8E1D"/>
<path d="M104.989 91.3412C106.219 91.2337 106.778 92.9634 107.149 93.8575C107.343 94.3266 108.433 94.0078 108.248 93.5628C107.658 92.1391 106.932 90.4197 105.098 90.5797C104.498 90.6322 104.236 91.4065 104.989 91.3412Z" fill="#FF8E1D"/>
<path d="M112.917 86.1609C113.965 86.2128 114.862 87.5447 114.821 88.5322C114.796 89.1262 115.915 88.9797 115.937 88.4581C115.995 87.05 114.756 85.4025 113.289 85.3297C113.018 85.3166 112.697 85.4 112.575 85.6728C112.468 85.9128 112.672 86.1484 112.917 86.1609Z" fill="#FF8E1D"/>
<path d="M63.8512 86.0047C59.9244 94.7178 52.3444 99.7987 46.9209 97.355C41.4959 94.9097 40.2831 85.8641 44.2097 77.1534C48.1372 68.4397 55.7175 63.3609 61.1412 65.8047C66.5653 68.2491 67.7787 77.2931 63.8512 86.0047Z" fill="#FF8E1D"/>
<path d="M44.3497 83.9437C46.4497 80.48 51.7303 80.0066 54.8591 82.1747C57.3519 83.9012 58.18 87.2409 57.5031 90.0453C57.435 90.3275 58.5163 90.1587 58.5869 89.8647C59.6638 85.4028 56.9134 81.0769 52.3481 80.39C49.2147 79.9187 44.9416 81.3603 43.2659 84.1244C43.1619 84.2956 44.1778 84.2275 44.3497 83.9437Z" fill="#004C84"/>
<path d="M64.6413 90.0138C66.1444 85.4556 72.9388 83.5903 77.0519 85.0675C80.4725 86.2956 82.026 90.0381 82.1922 93.3775C82.2103 93.7381 83.3091 93.5125 83.2878 93.0841C83.0341 87.995 79.146 83.1659 73.6163 83.8509C69.8041 84.3228 64.8556 86.1747 63.546 90.1484C63.4181 90.5347 64.5181 90.3872 64.6413 90.0138Z" fill="#004C84"/>
<path d="M57.5438 99.9237L38.7656 98.3956L41.6681 102.176L0.090332 108.096L36.876 99.2809L32.7178 92.4775L58.5488 97.3919L57.5438 99.9237Z" fill="#FFC033"/>
<path d="M74.2022 108.687C73.4884 108.687 72.8031 108.609 72.1959 108.467L72.3678 107.731C74.3769 108.199 77.3091 107.928 78.9938 106.224C80.1144 105.092 80.4459 103.549 79.9794 101.638C78.8463 97.0037 71.99 94.6853 70.0547 94.1178C70.2844 97.7225 69.4366 100.368 67.5316 101.987C64.2738 104.757 59.1738 103.481 58.9581 103.426L58.5134 103.311L59.8613 100.494L39.5863 98.8437L42.3594 102.461L0.141563 108.473L0 107.732L36.285 99.0325L31.9531 91.9447L58.6191 97.0181L58.4775 97.7603L33.4878 93.0053L37.4712 99.5256L8.00625 106.589L40.9722 101.894L37.9503 97.9506L61.0166 99.8294L59.6012 102.788C60.8887 103.023 64.6184 103.473 67.0447 101.408C68.8434 99.8778 69.5884 97.265 69.2597 93.6441L69.2116 93.1181L69.7253 93.2425C70.1153 93.3372 79.2891 95.6322 80.7131 101.458C81.3775 104.178 80.4369 105.84 79.5309 106.756C78.1612 108.141 76.0831 108.687 74.2022 108.687Z" fill="#004C84"/>
<path d="M75.3009 108.247L67.6209 101.397C69.0643 99.969 70.0019 97.5728 69.639 93.6119C69.639 93.6119 78.9603 95.8787 80.3431 101.548C81.3943 105.82 78.4387 107.87 75.3009 108.247Z" fill="#004C84"/>
<path d="M78.8987 98.78C78.8987 98.78 82.2362 103.688 78.1409 106.712C78.1409 106.712 75.0581 102.814 78.8987 98.78Z" fill="#F299BB"/>
<path d="M70.0547 93.7237C70.0547 93.7237 70.631 99.4491 68.4394 100.93L70.6444 102.747L72.0541 94.7447L70.0547 93.7237Z" fill="white"/>
<path d="M67.6209 93.2309L68.4393 93.9547C68.4393 93.9547 70.5493 92.3234 75.0381 93.6116C75.0381 93.6116 72.2978 90.8841 67.6209 93.2309Z" fill="#004C84"/>
<path d="M91.2056 91.8147C91.2056 91.8147 76.4185 20.3484 101.132 12.0659C125.845 3.78469 136.06 45.7141 91.2056 91.8147Z" fill="#288EEA"/>
<path d="M90.701 99.0912C90.701 99.0912 110.378 11.0203 142.444 14.2547C174.509 17.4891 164.7 69.9381 90.701 99.0912Z" fill="#288EEA"/>
<path opacity="0.4" d="M91.2056 91.8147C91.2056 91.8147 76.4185 20.3484 101.132 12.0659C125.845 3.78469 136.06 45.7141 91.2056 91.8147Z" fill="white"/>
<path opacity="0.4" d="M90.701 99.0912C90.701 99.0912 110.378 11.0203 142.444 14.2547C174.509 17.4891 164.7 69.9381 90.701 99.0912Z" fill="white"/>
<path opacity="0.4" d="M93.7907 78.8731C90.5944 74.91 90.6422 67.2881 90.5769 62.4962C90.5022 57.0234 91.3438 51.5816 92.4166 46.2331C93.4247 41.2094 95.2066 36.355 97.5178 31.7909C99.7728 27.3381 105.55 17.6487 111.674 20.4194C112.101 20.6119 112.948 20 112.319 19.7156C102.836 15.4266 95.221 33.2109 93.15 39.5759C90.8785 46.5569 89.7069 53.8728 89.4794 61.2044C89.3116 66.6259 89.2135 74.9212 92.7807 79.3431C93.0747 79.7075 94.125 79.2872 93.7907 78.8731Z" fill="white"/>
<path opacity="0.4" d="M95.6056 73.6509C94.8181 65.5247 97.3706 57.6931 101.397 50.715C105.126 44.2519 111.041 37.7906 119.033 37.8106C119.676 37.8122 119.864 36.9669 119.12 36.9647C111.314 36.9453 105.64 42.5569 101.531 48.6562C96.5725 56.0144 93.6444 65.0497 94.5063 73.9456C94.5581 74.4775 95.6588 74.2041 95.6056 73.6509Z" fill="white"/>
<path opacity="0.4" d="M105.992 83.2653C131.219 77.1028 153.238 53.2697 150.474 26.2412C150.442 25.9294 149.337 26.1612 149.375 26.5359C152.084 53.0275 130.693 76.7241 105.864 82.7897C105.206 82.9503 105.339 83.4253 105.992 83.2653Z" fill="white"/>
<path opacity="0.4" d="M120.553 70.8159C127.914 70.6694 133.859 63.1428 137.326 57.3931C142.373 49.0231 144.686 39.6509 144.288 29.895C144.264 29.2869 143.149 29.4319 143.171 29.9631C143.495 37.9288 142.023 45.6172 138.668 52.8613C135.605 59.4741 128.812 69.7916 120.635 69.9538C119.988 69.9669 119.808 70.8306 120.553 70.8159Z" fill="white"/>
<path opacity="0.4" d="M113.309 76.9072C113.594 57.2041 125.042 31.6531 144.832 24.7041C145.478 24.4775 145.313 23.7944 144.65 24.0269C124.365 31.15 112.495 56.7181 112.201 77.0109C112.193 77.5466 113.303 77.3519 113.309 76.9072Z" fill="white"/>
<path d="M153.859 63.1416C154.794 65.9119 153.318 69.9788 151.945 72.3731C149.807 76.0969 147.045 80.0913 146.17 84.3669C145.946 85.6138 145.785 86.8494 145.702 88.0988C145.006 88.1913 144.311 88.23 143.615 88.2025C143.907 85.0778 142.087 81.7763 140.201 79.5547C138.447 77.4241 136.266 75.985 134.801 73.5403C133.085 70.7756 133.144 67.6984 134.905 65.0309C137.473 61.1722 140.689 58.1284 145.585 58.49C148.802 58.7538 152.666 59.8206 153.859 63.1416Z" fill="#E51345"/>
<path d="M153.714 62.7155L133.412 69.0472L133.679 69.9054L153.982 63.5738L153.714 62.7155Z" fill="#F299BB"/>
<path d="M151.515 72.5989L135.372 73.9939L135.449 74.8897L151.592 73.4946L151.515 72.5989Z" fill="#F299BB"/>
<path d="M137.676 73.4153L134.494 70.7463L135.071 70.0566L137.623 72.1975L141.845 67.9838L145.22 70.7456L148.434 66.8491L150.802 69.9263L153.723 65.92L154.45 66.4506L150.821 71.4263L148.409 68.2928L145.344 72.0085L141.905 69.1944L137.676 73.4153Z" fill="#F299BB"/>
<path d="M150.577 59.3558L134.767 64.603L135.05 65.4557L150.86 60.2085L150.577 59.3558Z" fill="#F299BB"/>
<path d="M149.475 75.9805L138.934 77.8132L139.089 78.6993L149.629 76.8666L149.475 75.9805Z" fill="#F299BB"/>
<path d="M155.759 61.8109C159.479 66.7416 155.894 73.77 151.398 76.8547C151.086 77.0688 151.42 77.2384 151.654 77.0784C156.337 73.8656 160.113 66.6675 156.233 61.5244C156.113 61.3666 155.61 61.6131 155.759 61.8109Z" fill="#004C84"/>
<path d="M158.707 63.2925C161.11 67.5984 157.238 72.7419 154.279 75.7175C154.017 75.9819 154.485 76.0322 154.651 75.8656C157.683 72.815 161.705 67.5097 159.23 63.0753C159.118 62.8763 158.602 63.1066 158.707 63.2925Z" fill="#004C84"/>
<path d="M88.2759 107.399C102.673 122.711 144.971 120.748 144.438 94.0725C144.424 93.3503 142.231 93.7881 142.248 94.6594C142.742 119.432 103.798 120.879 90.3069 106.531C89.7666 105.956 87.6806 106.766 88.2759 107.399Z" fill="#FF8E1D"/>
<path d="M140.39 87.7322C140.39 87.7322 145.461 91.61 146.504 89.5228C147.549 87.4347 140.092 81.6188 137.706 83.7063C135.32 85.7931 142.778 96.2334 142.778 96.2334C142.778 96.2334 156.349 97.1319 150.233 83.2594L142.778 86.5372" fill="#FF8E1D"/>
<path d="M140.39 87.7322C140.39 87.7322 145.461 91.61 146.504 89.5228C147.549 87.4347 140.092 81.6188 137.706 83.7063L145.628 88.2022C145.628 88.2022 145.817 89.7234 140.39 87.7322Z" fill="#004C84"/>
<path d="M151.01 89.2966C151.122 91.0553 148.897 91.7256 147.475 91.7538C146.736 91.7684 146.478 92.7219 147.36 92.705C149.267 92.6672 152.474 91.576 152.323 89.1988C152.28 88.5153 150.974 88.7213 151.01 89.2966Z" fill="#004C84"/>
<path d="M150.417 85.801C150.26 87.6678 147.831 87.85 146.382 87.6166C145.788 87.521 145.045 88.3506 145.915 88.4906C147.955 88.8197 151.508 88.2713 151.725 85.681C151.778 85.0535 150.462 85.2647 150.417 85.801Z" fill="#004C84"/>
<path d="M148.326 94.3953C146.428 93.65 145.717 90.9959 145.679 89.1469C145.674 88.9306 144.375 89.1285 144.382 89.4935C144.421 91.376 145.167 94.075 147.104 94.8353C147.462 94.9763 148.449 94.4438 148.326 94.3953Z" fill="#004C84"/>
</g>
<defs>
<clipPath id="clip0_18_1254">
<rect width="160" height="160" fill="white"/>
</clipPath>
</defs>
</svg>
