<svg width="160" height="160" viewBox="0 0 160 160" fill="none" xmlns="http://www.w3.org/2000/svg">
<g clip-path="url(#clip0_18_932)">
<path d="M111.462 99.1888L111.08 49.5669L160 53.5853L152.601 101.931L111.462 99.1888Z" fill="#FFC033"/>
<path d="M130.545 72.5694L128.305 65.4981L133.365 63.4128L132.563 72.7416L130.545 72.5694Z" fill="#288EEA"/>
<path d="M143.822 68.2488L133.376 66.971L143.887 67.4875L143.822 68.2488Z" fill="white"/>
<path d="M140.253 66.891L133.109 66.6722L140.236 66.1266L140.253 66.891Z" fill="white"/>
<path d="M142.586 64.351L133.517 66.3919L142.387 63.6125L142.586 64.351Z" fill="white"/>
<path d="M126.838 88.5181L136.643 86.8172L138.089 69.9613L124.576 71.0391L126.838 88.5181Z" fill="#004C84"/>
<path d="M136.643 75.9188C136.906 77.7613 134.986 79.5578 132.355 79.9328C129.724 80.3066 127.379 79.116 127.117 77.2735C126.855 75.4297 128.776 73.6328 131.406 73.2588C134.036 72.8838 136.382 74.075 136.643 75.9188Z" fill="white"/>
<path d="M130.262 77.8997C130.262 77.8997 130.196 82.0966 130.834 81.9825C131.473 81.8691 131.636 80.8903 131.636 80.8903C131.636 80.8903 132.342 82.8469 132.832 82.5209C133.321 82.195 132.832 80.8903 132.832 80.8903C132.832 80.8903 133.484 82.26 133.892 81.9825C134.3 81.7056 133.892 80.4547 133.892 80.4547C133.892 80.4547 134.681 81.6675 134.952 81.1975C135.224 80.7269 134.3 78.2566 134.3 78.2566L130.262 77.8997Z" fill="white"/>
<path d="M131.608 76.7994C131.608 77.5431 131.005 78.1444 130.262 78.1444C129.519 78.1444 128.917 77.5428 128.917 76.7994C128.917 76.0563 129.519 75.4541 130.262 75.4541C131.005 75.4541 131.608 76.0563 131.608 76.7994Z" fill="#004C84"/>
<path d="M135.446 76.1175C135.446 77.1025 134.647 77.8997 133.663 77.8997C132.679 77.8997 131.881 77.1025 131.881 76.1175C131.881 75.1334 132.679 74.335 133.663 74.335C134.647 74.335 135.446 75.1334 135.446 76.1175Z" fill="#004C84"/>
<path d="M131.881 77.8997L131.608 79.24L132.451 78.7425L131.881 77.8997Z" fill="#004C84"/>
<path d="M132.778 66.7141C132.778 67.3513 132.576 67.8681 132.329 67.8681C132.081 67.8681 131.881 67.3513 131.881 66.7141C131.881 66.0763 132.081 65.5597 132.329 65.5597C132.576 65.5597 132.778 66.0763 132.778 66.7141Z" fill="#004C84"/>
<path d="M151.221 99.7153L112.44 97.3237V52.4897L112.708 52.5019L158.834 54.7062L158.785 54.99L151.221 99.7153ZM112.95 96.8447L150.794 99.1778L158.234 55.1884L112.95 53.0244V96.8447Z" fill="#004C84"/>
<path d="M121.668 62.4509L120.328 54.9472L121.986 54.5416V58.3181L123.645 54.9472H125.239L122.497 58.4963L126.387 61.1438L124.921 62.0041L122.178 59.4534L123.358 62.4509H121.668Z" fill="#E51345"/>
<path d="M127.918 60.92L127.861 59.3894H130.241V57.795L127.827 58.4747L127.727 55.7538L131.171 55.8813L130.869 54.9472H127.025V62.0041H131.586V60.625L127.918 60.92Z" fill="#E51345"/>
<path d="M133.601 61.3662L133.544 59.8356H135.924V58.2412L133.51 58.9209L133.409 56.2L136.853 56.3275L136.552 55.3941H132.708V62.4509H137.268V61.0712L133.601 61.3662Z" fill="#E51345"/>
<path d="M138.568 62.6184L138.002 55.5616C138.002 55.5616 143.105 54.5181 143.743 56.1122C144.381 57.7072 139.661 59.0894 139.661 59.0894L139.597 57.9622C139.597 57.9622 142.977 57.3241 142.786 56.5588C142.595 55.7931 139.597 56.6219 139.597 56.6219L140.298 62.1709L138.568 62.6184Z" fill="#E51345"/>
<path d="M125.85 92.2638C125.85 94.3319 124.551 96.0078 122.948 96.0078C121.346 96.0078 120.046 94.3319 120.046 92.2638C120.046 90.1956 121.346 88.5184 122.948 88.5184C124.551 88.5181 125.85 90.1956 125.85 92.2638Z" fill="#E51345"/>
<path d="M124.817 92.6544C124.56 94.0875 123.616 95.1178 122.707 94.9553C121.798 94.7919 121.269 93.4994 121.526 92.0663C121.782 90.6328 122.726 89.6028 123.635 89.7663C124.544 89.9281 125.072 91.2222 124.817 92.6544Z" fill="#FFC033"/>
<path d="M127.093 89.7494H128.917C128.917 89.7494 128.428 95.0916 129.832 94.9722C131.235 94.8513 131.881 89.2391 131.881 89.2391H133.663C133.663 89.2391 132.702 96.4463 129.641 96.1272C126.579 95.8084 127.093 89.7494 127.093 89.7494Z" fill="#E51345"/>
<path d="M134.988 89.2391V91.0863L138.002 90.5991L137.268 96.0078L139.399 96.1378V90.205L142.487 89.7494L142.205 88.5181L134.988 89.2391Z" fill="#E51345"/>
<path d="M63.0512 87.2253C63.0512 87.2253 26.7893 42.3906 41.1458 27.6256C55.5027 12.8619 77.8577 38.6084 63.0512 87.2253Z" fill="#FFC033"/>
<path opacity="0.4" d="M63.0512 87.2253C63.0512 87.2253 26.7893 42.3906 41.1458 27.6256C55.5027 12.8619 77.8577 38.6084 63.0512 87.2253Z" fill="white"/>
<path opacity="0.4" d="M58.7502 74.1262C53.5546 69.4772 49.4621 64.9716 46.5511 58.5141C43.2892 51.2766 42.4961 43.0725 43.2805 35.2516C43.3336 34.7216 43.2277 34.1759 43.2805 33.6484C42.7127 39.3078 42.7652 45.025 43.7114 50.6413C44.5102 55.3822 46.2199 59.9131 48.5549 64.1012C51.2046 68.8541 54.7646 72.1634 58.7505 75.7297C58.4917 75.4978 59.0224 74.3697 58.7502 74.1262Z" fill="white"/>
<path opacity="0.4" d="M58.0289 65.71C53.7189 64.3856 51.3986 59.4866 49.6477 55.6881C46.5114 48.8853 46.2211 41.3663 47.8492 34.1291C47.9642 33.6181 47.7355 33.0316 47.8492 32.5259C46.7324 37.4909 46.4508 42.5213 46.9777 47.575C47.4502 52.11 49.0558 56.4359 51.2158 60.4197C52.7711 63.2881 54.7699 66.3112 58.0289 67.3131C57.8899 67.2703 58.1899 65.7594 58.0289 65.71Z" fill="white"/>
<path opacity="0.4" d="M48.3302 29.2397C51.249 29.4469 54.0637 33.3409 55.7846 35.4366C58.479 38.7178 59.8481 42.9206 60.9318 46.96C63.644 57.0706 62.8087 67.7406 61.3152 77.9734C61.2387 78.4981 61.3915 79.0553 61.3152 79.5766C62.4981 71.4728 63.0862 63.3003 62.5077 55.1203C62.1199 49.6344 60.9149 44.2438 58.8643 39.1425C57.8356 36.5834 56.3162 34.3809 54.4984 32.3244C52.9899 30.6181 50.7478 27.8081 48.3299 27.6366C48.3559 27.6384 48.2806 29.2363 48.3302 29.2397Z" fill="white"/>
<path d="M70.9797 99.8266L83.045 116.161L62.0631 118.187C62.0631 118.187 68.1406 130.57 69.7512 130.187C71.3615 129.802 63.8972 119.648 63.8972 119.648L84.5697 116.409C84.5697 116.409 73.3287 100.51 70.9797 99.8266Z" fill="#288EEA"/>
<path d="M73.4678 99.4466L89.8993 115.709L75.3634 123.347C75.3634 123.347 87.3875 131.989 89.0853 130.316C90.7821 128.644 79.0675 123.842 79.0675 123.842L91.8478 115.064C91.8478 115.064 75.3268 99.5088 73.4678 99.4466Z" fill="#288EEA"/>
<path d="M79.8269 96.8291L87.2685 105.631L90.0963 100.247C90.0963 100.247 91.2441 101.038 91.8819 98.4875C91.8819 98.4875 95.2625 102.824 95.9003 102.314C96.5382 101.804 91.9457 96.8291 91.9457 96.8291C91.9457 96.8291 98.2603 99.7625 99.2807 99.0612C100.301 98.36 91.3082 95.7447 91.3082 95.7447C91.3082 95.7447 99.0597 95.2344 99.3613 94.3412C99.6635 93.4481 89.7775 93.895 89.0122 96.5741L86.5247 96.1272C86.5247 96.1272 89.7775 94.0228 89.331 93.3847C88.8844 92.7469 85.5038 94.7241 85.44 96.5741L89.5982 98.8062L86.8435 103.272C86.8432 103.271 81.2303 97.1478 79.8269 96.8291Z" fill="#288EEA"/>
<path d="M68.219 101.056L70.8343 121.193L51.5084 112.774C51.5084 112.774 50.8071 126.551 52.4009 126.997C53.9956 127.444 52.4009 114.942 52.4009 114.942L72.0456 122.15C72.0456 122.15 69.9409 102.793 68.219 101.056Z" fill="#288EEA"/>
<path d="M70.579 101.931L77.0453 124.128L60.629 123.745C60.629 123.745 66.9434 137.138 69.2397 136.502C71.5353 135.863 63.6268 125.977 63.6268 125.977L79.0615 124.51C79.0615 124.51 72.1731 102.888 70.579 101.931Z" fill="#288EEA"/>
<path d="M48.4041 86.0078L66.8584 94.6819C66.8584 94.6819 54.8678 71.7206 66.0931 55.1375C77.3187 38.555 97.5581 52.5013 98.0681 68.7441C98.5784 84.9872 79.9216 97.9478 67.4531 100.04C54.2719 102.25 48.4041 86.0078 48.4041 86.0078Z" fill="#F299BB"/>
<path d="M53.4273 94.0407L53.3964 94.6812L66.1872 95.2985L66.2182 94.658L53.4273 94.0407Z" fill="#004C84"/>
<path d="M56.2004 91.4139L55.2386 94.2496L55.8459 94.4555L56.8077 91.6199L56.2004 91.4139Z" fill="#004C84"/>
<path d="M58.2771 91.01L57.4752 94.2793L58.0983 94.4321L58.9001 91.1628L58.2771 91.01Z" fill="#004C84"/>
<path d="M61.5679 92.1744L60.3451 94.5096L60.9132 94.8071L62.136 92.4719L61.5679 92.1744Z" fill="#004C84"/>
<path d="M62.7028 58.611C63.5438 59.1766 64.3547 59.7941 65.2725 60.2338C65.7363 60.456 66.1428 59.765 65.6772 59.5419C64.7594 59.1019 63.9488 58.4847 63.1075 57.9191C62.6769 57.6294 62.2763 58.3241 62.7028 58.611Z" fill="#F299BB"/>
<path d="M60.5225 60.1391C62.229 60.8106 63.9769 61.3578 65.729 61.8972C66.2244 62.0497 66.4344 61.2759 65.9419 61.1244C64.19 60.585 62.4419 60.0375 60.7353 59.3663C60.254 59.1769 60.0472 59.9522 60.5225 60.1391Z" fill="#F299BB"/>
<path d="M77.2356 49.4066C77.0903 48.1653 76.95 46.9231 76.6125 45.7163C76.4734 45.2191 75.7 45.4303 75.8397 45.9291C76.1581 47.0678 76.2969 48.235 76.4341 49.4066C76.4937 49.9134 77.2959 49.9194 77.2356 49.4066Z" fill="#F299BB"/>
<path d="M78.8585 49.6772C78.8685 48.5938 78.9838 47.515 78.9938 46.4316C78.9985 45.9147 78.1969 45.915 78.1922 46.4316C78.1822 47.515 78.0669 48.5938 78.0569 49.6772C78.0522 50.1941 78.8538 50.1938 78.8585 49.6772Z" fill="#F299BB"/>
<path d="M80.5619 50.2175C81.326 48.8116 81.5494 47.2169 82.09 45.7263C82.2666 45.2394 81.4919 45.0313 81.3172 45.5134C80.8013 46.9356 80.5982 48.4728 79.87 49.8131C79.6232 50.2672 80.315 50.6719 80.5619 50.2175Z" fill="#F299BB"/>
<path d="M98.0787 87.1978L98.4925 90.6009C98.4925 90.6009 94.5381 86.0659 89.7109 81.6572L92.6197 78.5597L96.0278 84.815L97.7269 81.4166L107.166 103.612L98.0787 87.1978Z" fill="#F299BB"/>
<path d="M98.3016 90.7672C98.1516 90.595 83.3057 73.6747 76.3194 73.6747C76.2854 73.6747 76.2525 73.6753 76.2188 73.6759C70.5532 73.8109 68.3872 82.8372 67.8004 86.0131C69.4735 83.8403 74.2825 78.8463 81.2113 82.1038L80.9941 82.5653C72.761 78.695 67.7954 86.8506 67.5882 87.2006L66.9619 88.255L67.1157 87.0384C67.1863 86.4791 68.9272 73.3394 76.2066 73.1656C76.2422 73.165 76.28 73.1644 76.3163 73.1644C83.5354 73.1644 98.0678 89.7228 98.6863 90.4306L98.3016 90.7672Z" fill="#004C84"/>
<path d="M81.1541 75.0794C79.8991 76.2888 78.0416 78.4416 77.0569 81.2891C70.9488 81.0284 67.3669 87.0703 67.3669 87.0703C67.3669 87.0703 69.0713 73.5897 76.2151 73.4209C77.6132 73.3916 79.3169 74.0294 81.1541 75.0794Z" fill="#004C84"/>
<path d="M72.3531 75.0841C72.3531 75.0841 72.5669 77.0784 73.2416 76.9937C73.9163 76.9078 74.5541 74.6547 74.5541 74.6547C74.5541 74.6547 74.9797 75.8056 75.6175 75.8256C76.2553 75.8453 76.5535 73.9578 76.5535 73.9578C76.5535 73.9578 74.6588 73.1322 72.3531 75.0841Z" fill="white"/>
<path d="M67.92 85.6056C67.92 85.6056 69.3654 82.9287 73.3675 81.7009C73.3675 81.7009 68.5422 78.5912 67.92 85.6056Z" fill="#FFC033"/>
<path d="M65.9594 84.8672C65.5925 86.2319 64.7703 88.8881 66.2319 89.9316C67.2669 90.6713 68.4694 89.1969 69.0335 88.55C69.2366 88.3172 68.4966 88.3772 68.3485 88.5472C68.0378 88.9028 67.3563 89.9606 66.7488 89.5266C66.4085 89.2837 66.3088 88.7344 66.231 88.3516C65.9947 87.1922 66.3972 85.8828 66.6972 84.7675C66.7647 84.5163 66.0238 84.6281 65.9594 84.8672Z" fill="#004C84"/>
<path d="M97.9459 86.6703L98.3015 90.7672L98.6865 90.4309L97.9459 86.6703Z" fill="#004C84"/>
<path d="M95.8038 84.9394L90.2257 74.5981L96.252 84.6953L95.8038 84.9394Z" fill="#004C84"/>
<path d="M101.066 59.8994C101.066 67.3665 97.0109 73.4197 92.0091 73.4197C87.0072 73.4197 82.9525 67.3665 82.9525 59.8994C82.9525 52.4325 87.0072 46.3781 92.0091 46.3781C97.0109 46.3781 101.066 52.4325 101.066 59.8994Z" fill="white"/>
<path d="M100.693 59.9338C100.548 65.2856 98.2003 73.5366 91.4 73.1259C85.4481 72.7669 83.4515 64.5216 83.3256 59.865C83.18 54.5009 86.0515 46.275 92.6187 46.6713C98.5706 47.0303 100.567 55.2772 100.693 59.9338C100.703 60.2984 101.447 60.1647 101.439 59.8653C101.302 54.7784 98.7968 45.7225 92.0481 46.1294C85.2718 46.5384 82.7353 54.1853 82.5797 59.9338C82.4418 65.0338 85.4065 74.0644 91.9706 73.6681C98.7472 73.2591 101.284 65.6138 101.439 59.8653C101.449 59.5025 100.702 59.6306 100.693 59.9338Z" fill="#004C84"/>
<path d="M99.3859 60.625C99.3859 61.8994 98.8009 62.9325 98.0787 62.9325C97.3572 62.9325 96.7712 61.8994 96.7712 60.625C96.7712 59.3513 97.3569 58.3181 98.0787 58.3181C98.8009 58.3181 99.3859 59.3513 99.3859 60.625Z" fill="#004C84"/>
<path d="M78.71 72.2319C81.9854 72.2319 84.6407 68.3626 84.6407 63.5897C84.6407 58.8167 81.9854 54.9475 78.71 54.9475C75.4346 54.9475 72.7794 58.8167 72.7794 63.5897C72.7794 68.3626 75.4346 72.2319 78.71 72.2319Z" fill="white"/>
<path d="M83.4944 63.2603C83.4944 63.9528 82.9588 64.515 82.2991 64.515C81.6381 64.515 81.1031 63.9531 81.1031 63.2603C81.1031 62.5666 81.6381 62.0041 82.2991 62.0041C82.9588 62.0041 83.4944 62.5663 83.4944 63.2603Z" fill="#004C84"/>
<path d="M63.9747 90.7916C63.9747 90.7916 3.07153 91.6844 0.165279 70.1266C-2.74066 48.5681 33.2322 46.7822 63.9747 90.7916Z" fill="#FFC033"/>
<path opacity="0.4" d="M63.9747 90.7916C63.9747 90.7916 3.07153 91.6844 0.165279 70.1266C-2.74066 48.5681 33.2322 46.7822 63.9747 90.7916Z" fill="white"/>
<path opacity="0.4" d="M4.00495 65.5497C4.93338 74.1366 12.9956 79.7238 20.6584 82.0072C28.864 84.4525 37.849 83.7438 46.2465 82.9431C46.309 82.9372 46.2081 81.3438 46.2465 81.34C38.0356 82.1228 29.699 82.5878 21.6065 80.6578C13.5874 78.745 4.95588 72.7425 4.00495 63.9466C4.06182 64.4731 3.94745 65.0203 4.00495 65.5497Z" fill="white"/>
<path opacity="0.4" d="M7.77002 58.3641C7.44127 63.2531 9.03815 67.2953 12.5203 70.8778C17.8006 76.3103 26.39 77.0031 33.5016 76.6106C33.5428 76.6085 33.4844 75.0085 33.5016 75.0075C28.1753 75.3016 22.8694 74.9063 17.9 72.8428C13.2413 70.9081 7.40159 65.446 7.7744 59.91C7.80659 59.4285 7.74471 58.7403 7.77002 58.3641Z" fill="white"/>
<path opacity="0.4" d="M16.0281 64.5075C31.7612 61.9153 46.4665 73.8444 51.7771 87.8325C51.6015 87.3697 51.9559 86.7003 51.7771 86.2294C46.4665 72.2413 31.7612 60.3122 16.0281 62.9044C15.9306 62.9203 16.1018 64.4953 16.0281 64.5075Z" fill="white"/>
<path d="M64.9662 96.1269C65.2209 96.1909 52.0821 96.9566 51.1893 102.314L70.3875 104.164C70.3875 104.164 71.089 106.268 72.0456 105.949C73.0025 105.631 72.4921 103.143 72.4921 103.143C72.4921 103.143 75.3625 105.567 76.319 105.185C77.2759 104.802 71.854 101.868 71.854 101.868C71.854 101.868 77.8493 103.909 78.3596 103.207C78.87 102.506 70.1959 100.72 70.3871 100.655C70.5787 100.592 78.2118 100.337 78.3815 99.6356C78.5509 98.9337 68.95 99.7422 68.95 99.7422L70.1321 102.633L53.2937 101.056L64.9662 96.1269Z" fill="#288EEA"/>
<path d="M71.8487 106.142C71.5384 106.142 71.1409 105.952 70.7209 105.259C70.42 104.763 70.2428 104.237 70.2353 104.215L70.5397 104.113C70.7209 104.656 71.3394 106.018 71.995 105.797C72.6659 105.573 72.4603 103.784 72.335 103.175L72.2422 102.722L72.5953 103.021C73.6765 103.934 75.6234 105.288 76.2597 105.035C76.2716 104.671 73.939 103.178 71.7778 102.008L71.9059 101.715C74.675 102.658 77.8228 103.451 78.209 103.134C77.8572 102.647 73.4384 101.583 71.7566 101.179C70.2306 100.812 70.2306 100.812 70.2244 100.665L70.2191 100.544L70.3365 100.503C70.3909 100.485 70.5194 100.475 71.3922 100.424C75.4975 100.185 77.7778 99.9197 78.1797 99.6356C77.5259 99.3756 73.2297 99.5491 69.1815 99.8831L70.2812 102.572L69.9844 102.693L68.7194 99.6L68.9369 99.5819C71.0491 99.4044 77.9784 98.8697 78.4847 99.4603C78.5372 99.5216 78.5559 99.5969 78.5378 99.6725C78.4187 100.164 76.554 100.444 71.4109 100.744C71.3872 100.746 71.3637 100.747 71.3406 100.748C71.4962 100.786 71.6628 100.826 71.8319 100.867C75.9247 101.852 78.3319 102.524 78.5244 103.048C78.5566 103.136 78.5444 103.226 78.4897 103.301C78.0841 103.859 75.2981 103.122 73.3397 102.518C74.79 103.363 76.6225 104.539 76.5922 105.062C76.5881 105.133 76.555 105.262 76.3787 105.333C75.5328 105.672 73.54 104.191 72.7212 103.538C72.8294 104.309 72.9281 105.824 72.0962 106.101C72.0222 106.126 71.9394 106.142 71.8487 106.142Z" fill="#004C84"/>
</g>
<defs>
<clipPath id="clip0_18_932">
<rect width="160" height="160" fill="white"/>
</clipPath>
</defs>
</svg>
