<svg width="160" height="160" viewBox="0 0 160 160" fill="none" xmlns="http://www.w3.org/2000/svg">
<g clip-path="url(#clip0_18_230)">
<path d="M71.8434 87.4925C71.8434 87.4925 23.2003 42.6641 33.9968 15.4444C44.7928 -11.7759 86.8456 32.19 71.8434 87.4925Z" fill="#FFC033"/>
<path d="M72.3141 91.9444C72.3141 91.9444 6.87875 82.2747 0.478751 53.6988C-5.92 25.1231 53.5856 37.7906 72.3141 91.9444Z" fill="#FFC033"/>
<path opacity="0.5" d="M71.8434 87.4925C71.8434 87.4925 23.2003 42.6641 33.9968 15.4444C44.7928 -11.7759 86.8456 32.19 71.8434 87.4925Z" fill="white"/>
<path opacity="0.5" d="M72.3141 91.9444C72.3141 91.9444 6.87875 82.2747 0.478751 53.6988C-5.92 25.1231 53.5856 37.7906 72.3141 91.9444Z" fill="white"/>
<path opacity="0.2" d="M58.9965 71.0291C51.0812 63.7519 45.7459 54.9722 42.854 44.5266C40.3328 35.4209 38.2975 18.3409 47.719 12.3078C48.4178 11.8603 47.3222 11.8047 46.9756 12.0269C38.4912 17.46 39.194 30.5956 40.4534 39.2987C42.2715 51.8706 48.645 63.0281 57.8437 71.4866C58.1287 71.7484 59.275 71.2853 58.9965 71.0291Z" fill="white"/>
<path opacity="0.2" d="M54.6719 65.2366C47.0528 51.1609 41.4597 32.1247 53.2403 18.6563C53.5672 18.2828 52.3387 18.3959 52.1009 18.6678C40.2419 32.225 45.7494 51.3637 53.4375 65.5675C53.6462 65.9534 54.8325 65.5334 54.6719 65.2366Z" fill="white"/>
<path opacity="0.2" d="M51.6609 24.6656C58.2413 26.6744 63.4166 35.5797 65.9303 41.4547C68.8716 48.3303 69.5112 56.0544 69.8341 63.4381C69.8541 63.8866 71.0909 63.6228 71.0684 63.1072C70.6981 54.6478 69.6703 46.3135 66.0194 38.58C63.4481 33.1335 58.4569 25.7919 52.4028 23.9438C51.9684 23.8116 50.9472 24.4478 51.6609 24.6656Z" fill="white"/>
<path opacity="0.2" d="M4.46156 52.7603C5.19031 56.7447 8.60968 59.6035 11.585 62.0506C15.8337 65.5441 20.4784 68.3972 25.4078 70.821C35.1722 75.6228 45.9606 78.1822 56.6341 79.9781C56.9194 80.0263 57.9756 79.5656 57.6506 79.5106C46.9428 77.7088 36.4331 75.0356 26.5725 70.406C21.8762 68.2016 17.4944 65.3994 13.4334 62.1828C10.2319 59.646 6.46812 56.6516 5.69624 52.4291C5.65093 52.1866 4.40843 52.4685 4.46156 52.7603Z" fill="white"/>
<path opacity="0.2" d="M10.3522 55.2516C22.2109 66.7959 39.0991 70.3613 55.1434 70.6213C55.3956 70.6253 56.55 70.1388 55.9469 70.1288C40.0137 69.8709 23.2856 66.2916 11.5166 54.8353C11.2897 54.6153 10.1734 55.0769 10.3522 55.2516Z" fill="white"/>
<path opacity="0.2" d="M7.56095 44.7653C14.7285 41.9381 24.3 46.1409 30.7303 49.3766C36.745 52.4034 41.6209 57.0306 45.2841 62.6338C45.5153 62.9881 46.7131 62.5813 46.4288 62.1463C41.9288 55.2625 35.786 50.4547 28.2966 47.1656C21.921 44.365 13.8735 41.5578 7.06845 44.2413C6.26658 44.5581 6.99845 44.9866 7.56095 44.7653Z" fill="white"/>
<path d="M97.2897 92.8112L104.114 108.331L131.083 105.976C131.083 105.976 132.048 109.581 135.044 109.169C138.039 108.757 144.783 97.6281 140.607 95.38C136.433 93.1316 131.296 103.299 131.296 103.299L105.29 106.404L97.2897 92.8112Z" fill="#FF8E1D"/>
<path d="M135.892 98.0175C135.199 99.395 134.097 101.192 134.6 102.788C134.894 103.726 135.835 103.996 136.662 103.597C137.624 103.135 138.181 102.042 138.643 101.139C139.135 100.182 139.573 99.1559 139.867 98.1197C139.945 97.8459 139.02 97.9834 138.942 98.2588C138.503 99.8025 137.806 101.433 136.845 102.718C136.65 102.979 136.36 103.444 136.04 103.236C135.609 102.955 135.45 102.393 135.41 101.916C135.297 100.545 136.222 99.0562 136.816 97.8794C136.924 97.6672 136.024 97.7528 135.892 98.0175Z" fill="#E51345"/>
<path d="M134.778 108.838C133.872 107.263 135.096 105.163 136.067 103.907C136.334 103.56 135.392 103.618 135.197 103.869C134.111 105.274 132.921 107.48 133.917 109.212C134.079 109.493 134.983 109.195 134.778 108.838Z" fill="#E51345"/>
<path d="M133.99 106.458C135.427 107.218 137.268 107.084 138.559 106.076C138.938 105.782 138.009 105.903 137.842 106.033C136.942 106.737 135.833 106.647 134.865 106.135C134.62 106.005 133.859 106.388 133.99 106.458Z" fill="#E51345"/>
<path d="M135.916 103.483C137.244 104.046 138.447 104.389 139.759 103.579C140.151 103.338 139.214 103.455 139.048 103.555C138.356 103.983 137.443 103.444 136.793 103.169C136.612 103.092 136.37 103.161 136.194 103.222C136.172 103.232 135.762 103.418 135.916 103.483Z" fill="#E51345"/>
<path d="M138.33 100.823C139.245 101.031 140.301 101.017 141.133 100.539C141.68 100.223 141.18 99.7541 140.727 100.013C140.178 100.328 139.481 100.351 138.873 100.212C138.642 100.157 138.379 100.202 138.214 100.388C138.082 100.535 138.116 100.772 138.33 100.823Z" fill="#E51345"/>
<path d="M135.148 98.5356L135.63 92.3672C135.63 92.3672 128.63 87.8481 136.999 78.3881L136.497 97.7647L135.148 98.5356Z" fill="#004C84"/>
<path d="M74.0394 109.169L82.0963 123.313L49.96 151.888C49.96 151.888 66.6556 155.42 68.796 154.028C70.9363 152.637 54.8825 150.817 54.8825 150.817L84.6366 123.205L74.0394 109.169Z" fill="#FF8E1D"/>
<path d="M81.5313 107.58L93.6247 127.38L71.0432 155.742C71.0432 155.742 93.7303 156.811 95.3372 155.099C96.9419 153.388 75.751 153.6 75.751 153.6L96.4069 126.952L81.5313 107.58Z" fill="#FF8E1D"/>
<path d="M91.2706 105.976L107.752 123.527L91.2706 144.506C91.2706 144.506 104.327 143.861 105.933 145.466C107.537 147.072 86.8253 145.466 86.8253 145.466L105.718 123.742L91.2706 105.976Z" fill="#FF8E1D"/>
<path d="M95.3375 103.299L118.883 121.493L108.93 144.611C108.93 144.611 128.729 145.361 130.014 143.326C131.297 141.294 112.676 142.792 112.676 142.792L120.917 120.316L95.3375 103.299Z" fill="#FF8E1D"/>
<path d="M32.835 86.9238L81.2112 98.9116C81.2112 98.9116 54.2397 69.3522 69.0087 33.9384C83.7781 -1.47749 138.575 -2.54875 148.207 20.1409C157.839 42.8316 154.629 73.4388 107.752 93.3463C107.752 93.3463 91.2925 108.514 59.1859 109.157C27.0787 109.797 32.835 86.9238 32.835 86.9238Z" fill="#F299BB"/>
<path d="M86.0888 8.82843L89.8784 16.075L85 9.51218L86.0888 8.82843Z" fill="#004C84"/>
<path d="M97.2231 11.3563L98.7884 17.4384L96.0187 11.8028L97.2231 11.3563Z" fill="#004C84"/>
<path d="M101.838 3.92844L101.597 13.8266L100.555 3.98L101.838 3.92844Z" fill="#004C84"/>
<path d="M71.2222 22.3709L75.9125 26.4309L70.4875 23.4238L71.2222 22.3709Z" fill="#004C84"/>
<path d="M70.4194 27.5056L77.7575 30.6662L70.0075 28.7241L70.4194 27.5056Z" fill="#004C84"/>
<path d="M34.1172 98.1065L34.066 98.9565L75.0159 101.426L75.0672 100.576L34.1172 98.1065Z" fill="#E51345"/>
<path d="M43.9138 90.348L38.3716 98.2937L39.0703 98.781L44.6125 90.8353L43.9138 90.348Z" fill="#E51345"/>
<path d="M44.6355 93.0943L41.5401 98.8027L42.2887 99.2087L45.3841 93.5003L44.6355 93.0943Z" fill="#E51345"/>
<path d="M54.1518 93.2067L52.6851 99.6824L53.5153 99.8704L54.982 93.3947L54.1518 93.2067Z" fill="#E51345"/>
<path d="M60.8389 93.8319L58.8627 99.9231L59.673 100.186L61.6492 94.0948L60.8389 93.8319Z" fill="#E51345"/>
<path opacity="0.2" d="M73.7841 41.69C72.9441 45.1172 71.1691 47.6266 69.8188 47.2956C68.4688 46.9653 68.0544 43.9194 68.8947 40.4925C69.7347 37.0653 71.5097 34.5559 72.8597 34.8869C74.21 35.2169 74.6241 38.2631 73.7841 41.69Z" fill="white"/>
<g opacity="0.2">
<path d="M71.5056 81.2891C70.4234 78.6831 69.6315 75.915 69.1375 74.1091C67.86 69.5691 67.2975 64.8844 67.2975 60.1997C67.2975 57.9256 67.4337 52.6787 69.2822 51.1116C72.4081 48.42 71.2669 58.0703 71.2669 59.6291C71.2669 66.3494 70.6962 74.075 71.5056 81.2891Z" fill="white"/>
</g>
<path d="M105.771 69.4953L97.7319 77.8291V83C91.2397 86.8131 85.8066 83.9941 86.9894 74.6197C88.2738 64.4478 94.2641 59.8494 94.2641 59.8494C94.2641 59.8494 93.48 71.1131 105.771 69.4953Z" fill="white"/>
<path d="M92.5344 84.9772C91.4697 84.9772 90.4916 84.7325 89.6331 84.2328C87.1213 82.7656 86.0688 79.3384 86.6713 74.5766C87.9572 64.3947 94.01 59.6394 94.0716 59.5925L94.6363 59.16L94.5881 59.8694C94.5841 59.9209 94.2788 65.005 97.7947 67.6775C100.713 69.8966 105.386 69.8966 111.686 67.6791L111.898 68.2828C105.381 70.5803 100.502 70.5469 97.4019 68.1847C94.4091 65.9066 93.9781 62.1541 93.9366 60.5672C92.465 61.9606 88.3353 66.5203 87.3072 74.6559C86.74 79.1459 87.6816 82.3494 89.9566 83.6775C92.2406 85.0094 95.6944 84.2466 99.1988 81.6372L99.5831 82.1513C97.0775 84.0166 94.6378 84.9772 92.5344 84.9772Z" fill="#E51345"/>
<path d="M86.8822 76.6519L94.3675 77.9353L86.9894 74.6181L86.8822 76.6519Z" fill="#E51345"/>
<path d="M96.2982 60.4353C96.2982 60.4353 92.3944 57.8684 88.2197 60.8638C88.2197 60.8638 91.5379 56.155 97.1032 59.4131L96.2982 60.4353Z" fill="#E51345"/>
<path d="M150.209 106.873C156.02 68.0687 125.409 65.0909 125.409 65.0909L124.021 61.6531C124.021 61.6531 146.497 58.7769 154.415 73.1159C158.255 80.0772 154.793 94.1859 150.209 106.873Z" fill="#F299BB"/>
<path d="M124.021 61.6531C124.021 61.6531 146.497 58.7769 154.415 73.1159C158.255 80.0772 154.793 94.1859 150.209 106.873C156.02 68.0687 125.409 65.0909 125.409 65.0909C125.409 65.0909 154.736 65.5475 151.524 100.184C151.524 100.184 158.91 79.8609 151.631 70.8719C144.355 61.8819 124.021 61.6531 124.021 61.6531Z" fill="#E51345"/>
<path d="M125.092 45.3997C122.573 57.9156 114.578 66.8631 107.234 65.3859C99.8891 63.9112 95.9763 52.5637 98.4925 40.0478C101.011 27.5319 109.005 18.5825 116.349 20.0591C123.695 21.5366 127.608 32.8812 125.092 45.3997Z" fill="white"/>
<path d="M124.172 45.5587C122.62 52.7687 116.346 68.7144 106.248 64.4522C97.7369 60.8597 98.0547 47.1625 99.4122 39.8894C100.769 32.6147 107.385 16.7956 117.337 20.9959C125.846 24.5884 125.53 38.2856 124.172 45.5587C124.087 46.0153 125.922 45.7019 126.009 45.2384C127.567 36.8881 127.297 20.4553 115.686 19.5187C105.222 18.6744 99.3266 32.0738 97.5741 40.2097C95.7841 48.5291 96.4419 65.0028 107.898 65.9269C118.36 66.7719 124.259 53.3744 126.009 45.2384C126.104 44.7959 124.274 45.0897 124.172 45.5587Z" fill="#E51345"/>
<path d="M114.425 44.3344C113.356 51.2631 109.365 56.3978 105.509 55.8041C101.654 55.2084 99.3941 49.1106 100.461 42.1828C101.53 35.2547 105.52 30.1194 109.376 30.7131C113.232 31.3084 115.492 37.4063 114.425 44.3344Z" fill="#004C84"/>
<path d="M118.585 37.5453C118.585 40.4241 116.179 42.7556 113.212 42.7556C110.241 42.7556 107.836 40.4241 107.836 37.5453C107.836 34.6666 110.241 32.3325 113.212 32.3325C116.179 32.3325 118.585 34.6662 118.585 37.5453Z" fill="white"/>
<path d="M158.102 33.0303C161.225 46.8872 157.165 59.6028 149.035 61.4344C140.905 63.2684 131.783 53.5216 128.66 39.6672C125.536 25.8103 129.596 13.0922 137.726 11.2606C145.857 9.42907 154.979 19.1759 158.102 33.0303Z" fill="white"/>
<path d="M157.173 33.2797C158.365 38.8975 158.631 44.5978 157.341 50.2281C156.291 54.8022 153.417 60.6247 148.176 61.2328C143.744 61.7485 139.697 58.2416 137.005 55.1675C133.157 50.7672 130.927 45.0303 129.591 39.416C128.272 33.8894 128.152 28.0122 129.421 22.4691C130.471 17.895 133.346 12.0725 138.587 11.4628C143.017 10.9463 147.065 14.4531 149.756 17.5281C153.605 21.9285 155.834 27.6653 157.173 33.2797C157.275 33.7197 159.143 33.2447 159.032 32.7816C156.816 23.4788 149.827 8.6472 137.894 10.8972C125.676 13.1988 125.795 30.8044 127.729 39.916C129.714 49.2638 137.093 64.0197 148.868 61.8003C161.086 59.4963 160.966 41.8947 159.032 32.7816C158.94 32.3491 157.071 32.8041 157.173 33.2797Z" fill="#E51345"/>
<path d="M141.89 37.1594C142.273 42.556 140.15 47.105 137.146 47.3172C134.142 47.5319 131.396 43.3272 131.014 37.9313C130.631 32.5332 132.756 27.9857 135.76 27.7735C138.763 27.5588 141.508 31.7635 141.89 37.1594Z" fill="#004C84"/>
<path d="M144.554 33.616C144.554 35.7869 142.741 37.5453 140.503 37.5453C138.266 37.5453 136.452 35.7869 136.452 33.616C136.452 31.4491 138.266 29.6906 140.503 29.6906C142.741 29.6906 144.554 31.4491 144.554 33.616Z" fill="white"/>
<path d="M78.4278 110.79L82.0959 100.194C82.0959 100.194 75.1962 99.4662 75.5381 95.5944C75.88 91.7197 91.3772 83.9284 113.212 91.9544C113.212 91.9544 109.18 113.443 78.4278 110.79Z" fill="#E51345"/>
<path opacity="0.1" d="M83.9003 105.468L81.9922 110.997C80.8509 110.971 79.6581 110.894 78.4322 110.792L80.3653 105.187L83.9003 105.468Z" fill="white"/>
<path opacity="0.5" d="M93.1507 106.192L92.1366 110.238C90.5178 110.553 88.7803 110.784 86.9153 110.911L88.5672 105.835L93.1507 106.192Z" fill="white"/>
<path opacity="0.3" d="M101.514 106.848C99.9988 107.708 98.3122 108.484 96.3872 109.114L97.1532 106.507L101.514 106.848Z" fill="white"/>
<path opacity="0.3" d="M108.235 101.397C106.761 103.109 104.863 104.821 102.434 106.32L104.027 101.346L108.235 101.397Z" fill="white"/>
<path opacity="0.3" d="M112.289 94.8134C111.838 95.9206 111.182 97.2662 110.254 98.7053L105.1 98.0156L106.412 93.9191L112.289 94.8134Z" fill="white"/>
<path opacity="0.5" d="M97.5625 88.544L96.5919 92.4284L93.0991 91.9003L94.2153 88.4675C95.2884 88.45 96.4038 88.4759 97.5625 88.544Z" fill="white"/>
<path opacity="0.3" d="M89.6578 88.7569L88.7978 91.2522L85.4756 90.7415L86.2344 89.3359C87.3072 89.0981 88.4485 88.9016 89.6578 88.7569Z" fill="white"/>
<path opacity="0.1" d="M107.605 90.1878L106.412 93.9194L101.114 93.1184L102.307 89.0809C104.011 89.345 105.782 89.7109 107.605 90.1878Z" fill="white"/>
<path opacity="0.5" d="M105.1 98.0156L104.027 101.346L98.7037 101.286L99.8706 97.3262L105.1 98.0156Z" fill="white"/>
<path opacity="0.1" d="M93.0991 91.9003L91.685 96.2356L87.2897 95.6475L88.7979 91.2525L93.0991 91.9003Z" fill="white"/>
<path opacity="0.3" d="M101.114 93.1181L99.8706 97.3263L95.5178 96.7381L96.5916 92.4284L101.114 93.1181Z" fill="white"/>
<path opacity="0.3" d="M95.5097 96.7381L94.3941 101.236H94.385L90.0753 101.184L91.685 96.2356L95.5097 96.7381Z" fill="white"/>
<path opacity="0.3" d="M85.4756 90.7416L83.125 95.0944L76.2087 94.1744C77.2484 92.8794 79.4794 91.4312 82.6734 90.3241L85.4756 90.7416Z" fill="white"/>
<path opacity="0.5" d="M87.2897 95.6475L85.3991 101.125L81.7875 101.082L82.0944 100.196C82.0944 100.196 81.4297 100.128 80.5272 99.9144L83.125 95.0944L87.2897 95.6475Z" fill="white"/>
<path opacity="0.3" d="M90.0753 101.184L88.5675 105.834L83.9003 105.468L85.3991 101.125L90.0753 101.184Z" fill="white"/>
<path opacity="0.1" d="M98.7038 101.286L97.1531 106.507L93.1506 106.192L94.385 101.236H94.3941L98.7038 101.286Z" fill="white"/>
<path d="M77.6919 97.2603C77.6919 97.2603 65.9803 103.594 64.9863 93.9191L73.9297 96.6581C73.9297 96.6581 69.5463 94.7875 72.3144 89.3925L77.6919 97.2603Z" fill="#E51345"/>
<path d="M82.3666 96.0844L84.1972 95.2766L85.5313 98.5016L86.8491 95.2766L89.1081 95.66L85.9447 99.5884L86.4963 105.448L84.3119 105.612L84.9656 99.6159L82.3666 96.0844Z" fill="white"/>
<path d="M103.115 95.6459L104.781 95.3156L105.289 98.2328L106.976 95.8066L108.776 96.5419L105.429 99.2094L104.803 104.163L102.964 103.895L104.614 99.0512L103.115 95.6459Z" fill="white"/>
<path d="M87.4138 98.2178L88.6722 97.97C88.6722 97.97 88.43 102.475 90.0122 102.147C91.595 101.817 90.9763 97.97 90.9763 97.97H92.3263C92.3263 97.97 92.4779 105.004 89.87 104.917C87.2632 104.831 87.4138 98.2178 87.4138 98.2178Z" fill="white"/>
<path d="M92.8928 102.957L93.4685 96.7587L95.1078 99.8075L96.8913 97.3728L96.7331 102.952L95.1469 103.117L95.9928 100.212L94.8656 101.548L93.8078 99.6253V103.085L92.8928 102.957Z" fill="white"/>
<path d="M97.9194 103.541L96.8912 95.23L99.9222 98.7644L101.566 95.0519L102.964 102.429L100.926 103.101L101.202 99.0412L100.105 101.122L98.1622 98.8981L99.1578 103.444L97.9194 103.541Z" fill="white"/>
<path d="M79.7122 101.266L66.0119 117.853L109.465 109.169C109.465 109.169 109.786 100.623 113.212 100.194C116.635 99.7684 117.063 110.578 113.853 114.43C110.643 118.284 109.03 112.408 109.03 112.408L63.2303 119.676C63.2303 119.676 69.6516 108.008 79.7122 101.266Z" fill="#FF8E1D"/>
<path d="M110.911 114.357C112.279 113.783 112.592 112.427 113.042 111.089C113.786 108.873 114.012 106.486 114.103 104.164C114.109 104.01 113.184 104.132 113.172 104.416C113.101 106.266 112.895 108.088 112.495 109.9C112.26 110.962 111.766 113.633 110.584 114.128C109.977 114.383 110.554 114.506 110.911 114.357Z" fill="#E51345"/>
<path d="M110.638 104.15C111.923 105.299 113.556 104.471 114.81 103.704C115.346 103.375 114.53 103.249 114.233 103.43C113.371 103.959 112.404 104.593 111.502 103.785C111.257 103.567 110.386 103.924 110.638 104.15Z" fill="#E51345"/>
<path d="M113.011 107.304C113.392 108.169 114.473 108.189 115.286 108.094C115.497 108.07 115.771 107.953 115.795 107.708C115.819 107.48 115.553 107.363 115.362 107.387C114.947 107.435 114.156 107.539 113.943 107.053C113.757 106.627 112.831 106.892 113.011 107.304Z" fill="#E51345"/>
<path d="M112.605 110.181C112.546 111.282 113.507 111.718 114.415 111.992C114.641 112.061 114.916 112.005 115.073 111.817C115.206 111.654 115.162 111.419 114.948 111.353C114.316 111.162 113.505 110.919 113.548 110.116C113.573 109.622 112.628 109.751 112.605 110.181Z" fill="#E51345"/>
<path d="M111.893 112.551C111.73 114.175 113.547 114.279 114.636 113.686C114.723 113.637 114.949 113.471 114.74 113.407C114.539 113.345 114.264 113.418 114.087 113.516C113.343 113.921 112.746 113.09 112.814 112.402C112.843 112.119 111.918 112.308 111.893 112.551Z" fill="#E51345"/>
<path d="M113.477 102.442L114.401 94.5762C114.401 94.5762 111.632 94.5762 111.069 93.2128C110.508 91.8487 112.194 84.6469 112.194 84.6469V93.2128L113.349 93.5456L114.361 84.6447L114.401 93.5441H115.323L116.528 84.6447L116.287 93.5441H117.652L118.455 85.0266C118.455 85.0266 120.682 94.7378 116.035 94.7378L114.521 102.844L113.477 102.442Z" fill="#004C84"/>
</g>
<defs>
<clipPath id="clip0_18_230">
<rect width="160" height="160" fill="white"/>
</clipPath>
</defs>
</svg>
