<svg width="160" height="160" viewBox="0 0 160 160" fill="none" xmlns="http://www.w3.org/2000/svg">
<g clip-path="url(#clip0_18_96)">
<path d="M45.7244 106.348L74.5769 58.9422L49.3687 23.3081L79.9722 59.0303L45.7244 106.348Z" fill="#004C84"/>
<path d="M47.9034 108.906L83.4334 56.8713L54.1153 13.8244L86.7891 56.9278C86.7891 56.9278 51.8216 108.285 47.9034 108.906Z" fill="#004C84"/>
<path d="M80.1554 123.152C80.1554 123.152 56.1222 129.349 40.5538 128.746C24.9857 128.141 32.8454 132.524 44.3325 136.152C55.8197 139.779 52.9482 145.975 52.9482 145.975C52.9482 145.975 3.6738 147.487 0.347547 142.197C-2.97714 136.908 18.6379 133.278 18.6379 133.278C18.6379 133.278 5.94098 127.233 9.26567 124.059C12.5913 120.885 57.6335 124.211 57.6335 124.211L80.1554 123.152Z" fill="#FFC033"/>
<path opacity="0.5" d="M80.1554 123.152C80.1554 123.152 56.1222 129.349 40.5538 128.746C24.9857 128.141 32.8454 132.524 44.3325 136.152C55.8197 139.779 52.9482 145.975 52.9482 145.975C52.9482 145.975 3.6738 147.487 0.347547 142.197C-2.97714 136.908 18.6379 133.278 18.6379 133.278C18.6379 133.278 5.94098 127.233 9.26567 124.059C12.5913 120.885 57.6335 124.211 57.6335 124.211L80.1554 123.152Z" fill="white"/>
<path opacity="0.5" d="M11.33 140.908C14.4481 141.471 18.0028 141.725 20.9088 140.127C22.8878 139.04 25.9047 137.19 26.1063 134.632C26.2156 133.253 25.9456 132.204 25.0638 131.143C24.0147 129.879 19.0494 126.961 24.6172 126.485C29.7316 126.049 34.8191 125.594 39.9569 125.466C40.6213 125.449 42.39 124.413 40.895 124.45C36.3069 124.565 31.7891 124.962 27.2244 125.377C25.3825 125.545 22.465 125.286 20.9203 126.596C19.3675 127.913 19.8313 129.066 21.1956 130.399C22.4991 131.671 23.5738 132.326 23.9425 134.287C24.9328 139.558 16.06 140.497 12.755 139.901C12.2097 139.802 10.1535 140.696 11.33 140.908Z" fill="white"/>
<path opacity="0.5" d="M19.4262 143.059C23.1309 143.7 27.3865 143.447 30.2872 140.785C31.8997 139.306 32.0794 136.874 31.6878 134.87C31.3287 133.032 28.9047 128.434 31.8303 127.524C33.1103 127.127 32.9412 126.428 31.6447 126.832C28.4134 127.836 27.7912 129.584 28.6962 132.823C29.2703 134.877 29.8866 136.602 29.4491 138.763C28.6887 142.522 24.324 142.721 21.2647 142.192C20.7372 142.1 18.8084 142.952 19.4262 143.059Z" fill="white"/>
<path d="M72.9916 122.4C72.9916 122.4 83.2788 127.638 97.2281 125.132C111.178 122.626 90.9506 141.219 98.7985 144.769C106.644 148.319 160 128.475 160 128.475C160 128.475 124.646 104.277 72.9916 122.4Z" fill="#FFC033"/>
<path opacity="0.5" d="M72.9916 122.4C72.9916 122.4 83.2788 127.638 97.2281 125.132C111.178 122.626 90.9506 141.219 98.7985 144.769C106.644 148.319 160 128.475 160 128.475C160 128.475 124.646 104.277 72.9916 122.4Z" fill="white"/>
<path opacity="0.5" d="M86.5324 122.701C93.3056 122.318 100.982 118.362 107.623 121.983C113.082 124.959 101.517 134.217 104.658 139.271C106.901 142.877 112.147 141.673 115.271 141.056C119.687 140.184 123.892 138.404 128.201 137.032C129.759 136.536 129.392 134.898 127.835 135.393C123.446 136.79 119.181 138.549 114.683 139.437C112.449 139.878 108.132 140.786 106.923 137.665C105.569 134.175 109.983 129.384 111.206 126.524C116.411 114.347 89.264 120.766 86.8646 120.903C85.5543 120.976 84.7509 122.802 86.5324 122.701Z" fill="white"/>
<path opacity="0.5" d="M116.05 122.207C113.087 125.766 107.043 136.379 115.137 136.111C126.282 135.743 136.227 128.285 147.555 128.407C148.065 128.412 150.488 127.219 149.243 127.207C141.342 127.121 134.089 129.759 126.588 132.421C123.741 133.431 114.053 137.724 113.506 132.149C113.162 128.656 116.526 124.155 118.38 121.931C118.886 121.321 116.471 121.704 116.05 122.207Z" fill="white"/>
<path d="M65.9464 62.8447L43.1229 110.758L49.9255 114.688C49.9255 114.688 60.3551 68.89 91.6433 62.8447C122.93 56.7978 134.115 91.8647 120.965 118.315C120.965 118.315 65.1914 135.093 34.6598 119.223C4.12733 103.352 41.7633 60.7275 65.9464 62.8447Z" fill="#F299BB"/>
<path d="M41.5073 110.616C41.4219 110.481 33.1819 96.7794 47.6326 67.7019L48.1741 67.9703C33.8723 96.7484 41.9357 110.162 42.0188 110.294L41.5073 110.616Z" fill="#E51345"/>
<path d="M33.6323 80.0066C34.2726 82.6569 37.077 84.1038 39.6045 84.3366C40.257 84.3969 41.4736 83.4781 40.2939 83.3697C38.1564 83.1722 35.9057 81.6947 35.3839 79.5375C35.2411 78.9463 33.4861 79.4025 33.6323 80.0066Z" fill="#E51345"/>
<path d="M25.0575 92.3347C28.8763 95.0191 34.0888 95.1353 38.096 92.8084C39.1216 92.2125 37.6232 91.7503 36.9675 92.1313C33.6844 94.0378 29.4613 93.5288 26.4269 91.395C25.8682 91.0019 24.2866 91.7925 25.0575 92.3347Z" fill="#E51345"/>
<path d="M22.9517 96.9116C27.3317 100.123 32.9717 99.3909 37.0567 96.0541C37.9792 95.3012 36.577 94.6716 35.8892 95.2334C32.4363 98.0528 27.9832 98.5897 24.2988 95.8875C23.6582 95.4181 22.1326 96.3103 22.9517 96.9116Z" fill="#E51345"/>
<path d="M23.3944 106.394C28.6538 109.798 35.0919 107.096 39.9091 104.146C40.9228 103.525 39.4338 103.063 38.7791 103.464C34.6557 105.988 29.2816 108.377 24.7622 105.451C24.1863 105.078 22.6069 105.884 23.3944 106.394Z" fill="#E51345"/>
<path d="M110.234 88.5394C110.234 88.5394 119.454 62.3913 107.513 46.52L106.758 53.9266C106.758 53.9266 96.0254 32.0106 77.7367 26.5688L99.5017 53.4725L98.7467 47.8813C98.7467 47.8813 112.047 65.1113 106.758 85.0631" fill="#F299BB"/>
<path d="M110.519 88.6397L109.949 88.4391C110.039 88.1825 118.736 62.9534 107.733 47.3359L106.95 55.0088L106.486 54.0591C106.381 53.845 95.9798 32.9638 78.6029 27.1591L99.0573 52.4428L98.2954 46.8025L98.9854 47.6963C99.1198 47.8697 112.316 65.2738 107.049 85.1406L106.465 84.9853C110.941 68.1031 101.873 53.0041 99.2107 49.0625L99.9454 54.5022L76.8876 26.0009L77.8219 26.2794C93.9085 31.0656 104.286 48.7044 106.558 52.8972L107.29 45.7213L107.754 46.3381C119.655 62.1559 110.612 88.3772 110.519 88.6397Z" fill="#E51345"/>
<path d="M42.6697 106.374L60.8085 53.9266L28.6138 24.4531L66.0978 52.8675L42.6697 106.374Z" fill="#004C84"/>
<path d="M44.9375 110.455L72.1444 53.6241L36.6244 15.535L75.47 53.17C75.47 53.17 48.7163 109.248 44.9375 110.455Z" fill="#004C84"/>
<path d="M44.7869 113.48L11.9866 110.456L34.6597 91.7134C34.6597 91.7134 19.6578 85.9706 23.2284 84.1559C26.7997 82.3434 38.2869 91.7134 38.2869 91.7134L19.2422 108.794C19.2422 108.794 39.0416 108.945 44.7869 113.48Z" fill="#004C84"/>
<path d="M131.493 103.705C130.019 111.979 123.001 117.649 115.817 116.371C108.633 115.091 104.004 107.347 105.478 99.0725C106.951 90.7962 113.968 85.1266 121.153 86.4066C128.338 87.6856 132.967 95.4303 131.493 103.705Z" fill="#FFC033"/>
<path d="M130.613 103.798C128.977 111.544 122.081 118.454 113.719 115.047C107.519 112.52 105.484 104.998 106.359 98.9787C107.508 91.0712 115.269 84.4778 123.252 87.73C129.453 90.2559 131.488 97.7787 130.613 103.798C130.501 104.57 132.277 104.278 132.374 103.611C133.581 95.3019 129.333 86.9153 120.502 85.7253C112.41 84.6341 106.114 91.9847 104.598 99.1659C102.859 107.401 108.018 115.915 116.469 117.052C124.56 118.14 130.856 110.792 132.373 103.611C132.531 102.866 130.753 103.134 130.613 103.798Z" fill="#004C84"/>
<path d="M113.179 107.793C117.45 104.246 121.397 100.354 125.392 96.5063C125.811 96.1034 124.119 96.2806 123.794 96.5938C119.876 100.368 116.01 104.2 111.822 107.678C111.107 108.272 112.852 108.064 113.179 107.793Z" fill="#004C84"/>
<path d="M113.659 96.1578C117.345 99.7828 120.215 104.055 122.726 108.552C123.054 109.14 124.747 108.551 124.342 107.825C121.831 103.327 118.96 99.0553 115.274 95.4306C114.775 94.9391 113.114 95.6225 113.659 96.1578Z" fill="#004C84"/>
<path d="M108.488 103.804C106.323 115.966 96.0051 124.302 85.4451 122.422C74.8841 120.541 68.0785 109.157 70.2457 96.9931C72.4119 84.8294 82.7285 76.4928 93.2891 78.3747C103.851 80.2541 110.655 91.64 108.488 103.804Z" fill="#FFC033"/>
<path d="M89.5306 110.172C93.0122 105.099 96.5572 100.084 100.503 95.3584C101.915 93.6681 98.5597 93.2609 97.595 94.4156C93.4913 99.3303 89.8188 104.561 86.1985 109.835C85.1403 111.377 88.7191 111.354 89.5306 110.172Z" fill="#004C84"/>
<path d="M87.43 95.5184C90.8572 99.1025 94.24 102.718 98.0113 105.949C98.8106 106.633 102.004 105.293 101.295 104.686C97.5234 101.457 94.1406 97.8406 90.7141 94.2559C90.0109 93.5212 86.7278 94.7831 87.43 95.5184Z" fill="#004C84"/>
<path d="M71.1076 81.1706C70.996 79.8341 74.2882 75.5634 74.6345 77.4606C74.7438 78.0603 74.7416 79.6184 75.661 79.6894C76.5804 79.7603 77.2735 79.0641 77.9304 78.5059C78.6085 77.9312 79.251 77.3103 79.9148 76.72C81.7229 75.1134 84.1688 75.6941 86.3773 75.9244C86.912 75.9803 87.5276 75.2116 86.771 75.1325C83.8279 74.8256 81.5538 74.2206 79.1779 76.2316C78.2148 77.0459 77.3301 77.9466 76.3298 78.7197C75.9782 78.9912 75.651 76.4578 75.4985 76.2572C73.512 73.6262 69.8529 79.8503 69.9879 81.4712C70.0298 81.9653 71.1513 81.6984 71.1076 81.1706Z" fill="#004C84"/>
<path d="M67.3154 80.1184C66.4644 81.3072 64.9597 84.2297 67.0944 85.0294C68.8541 85.6884 70.7916 84.4644 72.3304 83.7366C73.0272 83.4069 72.3991 82.8956 71.8554 83.1528C70.7204 83.6897 69.2525 84.7156 67.9438 84.4019C66.0975 83.9591 67.7832 81.0328 68.3744 80.2059C68.7097 79.7375 67.5679 79.7647 67.3154 80.1184Z" fill="#004C84"/>
</g>
<defs>
<clipPath id="clip0_18_96">
<rect width="160" height="160" fill="white"/>
</clipPath>
</defs>
</svg>
